<?xml version="1.0" encoding="UTF-8"?>
<svg id="Capa_2" data-name="Capa 2" xmlns="http://www.w3.org/2000/svg" viewBox="0 0 503.39 64.59">
  <defs>
    <style>
      .cls-1 {
        fill: #fff;
      }
    </style>
  </defs>
  <g id="Capa_1-2" data-name="Capa 1">
    <g>
      <polygon class="cls-1" points="136.57 64.47 0 64.45 .03 50.57 136.62 50.54 136.57 64.47"/>
      <polygon class="cls-1" points="136.75 39.63 25.06 39.65 25.01 25.44 136.47 25.34 136.75 39.63"/>
      <polygon class="cls-1" points="136.56 14.66 49.79 14.6 49.85 .05 136.53 0 136.56 14.66"/>
      <g>
        <path class="cls-1" d="M224.78,58.22c-9.68,9.71-36.53,6.03-49.37,3.74v-9.16c7.62.77,39.99,7.07,40.34-3.76.07-2.21-1.67-4.85-4.26-5.3l-18.47-3.26c-8.95-1.58-19.62-3.57-18.56-15.63.42-4.77,2.4-8.71,6.92-10.87,11.97-5.71,29.83-3.15,42.75-1.18l-.11,9.28c-7.47-.49-38.06-6.95-37.44,3.85.09,1.53,2.01,3.87,3.86,4.19l20.5,3.51c4.38.75,9.12,1.81,12.65,4.66,5.91,4.77,6.54,14.55,1.18,19.93Z"/>
        <path class="cls-1" d="M452.71,53.03l-6.29,10.78-12.56-.07,20.77-38.33,7.96-13.79,11.87-.12,28.93,52.24-12.69.11-6.13-10.74-31.86-.08ZM479.67,43.9l-11.1-21.1-11.35,21.16,22.45-.06Z"/>
        <path class="cls-1" d="M351.11,53.12l-31.72-.14-5.86,10.71-12.5-.18,28.07-51.91,12.03-.07,28.66,52.1-12.62.41-6.05-10.92ZM346.23,43.73l-11.13-20.83-11.23,21.01,22.36-.18Z"/>
        <path class="cls-1" d="M253.73,49.21c4.76,8.62,29.91,5.79,38.89,3.85l.18,9.25c-13.77,2.98-44.23,5.42-51.32-10.24-4.22-9.31-4.07-21.28.83-30.34,7.63-14.1,36.78-11.73,50.25-9.28l.21,9.36c-8.67-1.38-33.94-4.97-39.05,4.15-3.87,6.9-3.8,16.35.01,23.24Z"/>
        <polygon class="cls-1" points="426.75 54.9 426.79 63.95 379.79 63.91 379.8 11.69 391.57 11.47 391.53 54.85 426.75 54.9"/>
      </g>
    </g>
  </g>
</svg>